<mxfile host="app.diagrams.net" modified="2024-06-21T08:59:01.514Z" agent="Mozilla/5.0 (Macintosh; Intel Mac OS X 10.15; rv:126.0) Gecko/20100101 Firefox/126.0" version="24.5.5" etag="v4Sz7f13i35IGOHpcG8K" type="github">
  <diagram name="Page-1" id="SGolzjxcw8ml5JHLdMpV">
    <mxGraphModel>
      <root>
        <mxCell id="0" />
        <mxCell id="1" parent="0" />
      </root>
    </mxGraphModel>
  </diagram>
</mxfile>
